<?xml version="1.0" encoding="UTF-8"?>
<svg id="Layer_2" data-name="Layer 2" xmlns="http://www.w3.org/2000/svg" viewBox="0 0 992.28 256.12">
  <defs>
    <style>
      .cls-1 {
        stroke-width: 8px;
      }

      .cls-1, .cls-2, .cls-3 {
        fill: none;
        stroke: #fff;
        stroke-miterlimit: 10;
      }

      .cls-2 {
        stroke-width: 16px;
      }

      .cls-3 {
        stroke-width: .5px;
      }

      .cls-4 {
        fill: #fff;
      }
    </style>
  </defs>
  <g id="Layer_1-2" data-name="Layer 1">
    <g>
      <path class="cls-1" d="M400.33,68.3v4.47c0,26.82-7.91,42.63-27.16,49.17v.69c22.69,6.88,32.32,24.76,32.32,56.39v8.25c0,39.54-21.32,60.86-60.51,60.86h-53.64V7.44h50.89c37.82,0,58.11,21.32,58.11,60.86ZM327.79,41.13v65.67h11.35c17.54,0,24.76-8.94,24.76-29.23v-7.91c0-19.6-7.22-28.54-23.04-28.54h-13.07ZM327.79,140.5v73.92h15.82c17.54,0,25.44-9.28,25.44-29.57v-13.41c0-21.32-7.91-30.94-27.16-30.94h-14.1Z"/>
      <path class="cls-1" d="M471.16,248.12h-36.45V7.44h36.45v240.68Z"/>
      <path class="cls-1" d="M603.88,37.69l-67.05,176.73h67.05v33.69h-106.59v-30.26l67.05-176.73h-63.61V7.44h103.15v30.26Z"/>
      <path class="cls-1" d="M696.37,145.66h-73.24v-35.07h73.24v35.07Z"/>
      <path class="cls-1" d="M840.09,61.76v16.5l-35.07,1.72v-14.44c0-19.25-7.22-27.85-21.32-27.85s-21.32,8.6-21.32,24.41v131.34c0,15.82,6.88,24.41,20.97,24.41s20.97-8.6,20.97-27.85v-41.26h-20.63v-33.69h56.39v78.74c0,36.45-20.97,57.76-57.42,57.76s-56.73-21.32-56.73-57.76V61.76c0-36.45,20.63-57.76,56.73-57.76s57.42,21.32,57.42,57.76Z"/>
      <path class="cls-1" d="M988.28,64.86v125.84c0,37.82-22.35,60.86-58.79,60.86s-58.79-23.04-58.79-60.86v-125.84c0-37.82,22.35-60.86,58.79-60.86s58.79,23.04,58.79,60.86ZM907.14,65.2v125.15c0,17.88,7.91,27.51,22.35,27.51s22.35-9.63,22.35-27.51v-125.15c0-17.88-7.91-27.51-22.35-27.51s-22.35,9.63-22.35,27.51Z"/>
      <rect class="cls-3" x="8" y="88.12" width="80" height="80"/>
      <rect class="cls-3" x="8" y="8.12" width="80" height="80"/>
      <rect class="cls-3" x="8" y="168.12" width="80" height="80"/>
      <rect class="cls-3" x="88" y="8.12" width="80" height="80"/>
      <rect class="cls-3" x="88" y="168.12" width="80" height="80"/>
      <rect class="cls-3" x="168" y="88.12" width="80" height="80"/>
      <rect class="cls-3" x="168" y="8.12" width="80" height="80"/>
      <rect class="cls-3" x="168" y="168.12" width="80" height="80"/>
      <g>
        <line class="cls-2" x1="248" y1="8.12" x2="168" y2="8.12"/>
        <line class="cls-2" x1="248" y1="88.12" x2="248" y2="8.12"/>
      </g>
      <g>
        <line class="cls-2" x1="8" y1="248.12" x2="88" y2="248.12"/>
        <line class="cls-2" x1="8" y1="168.12" x2="8" y2="248.12"/>
      </g>
      <g>
        <line class="cls-2" x1="8" y1="8.12" x2="8" y2="88.12"/>
        <line class="cls-2" x1="88" y1="8.12" x2="8" y2="8.12"/>
      </g>
      <g>
        <line class="cls-2" x1="248" y1="248.12" x2="248" y2="168.12"/>
        <line class="cls-2" x1="168" y1="248.12" x2="248" y2="248.12"/>
      </g>
      <path class="cls-4" d="M133.39,203.42c-20.13-.53-37.03-7.63-50.7-21.3-13.67-13.67-20.5-30.3-20.5-49.91V61.01h71.2c17.91,0,33.85,6.2,47.84,18.6,3.18,2.86,6.09,5.99,8.74,9.38l-33.69,33.69h47.68c.42,3.18.64,6.36.64,9.54,0,19.6-6.97,36.37-20.9,50.3s-30.7,20.9-50.3,20.9ZM129.41,122.68l33.54-33.54c-9.01-6.14-18.86-9.22-29.56-9.22h-52.29v42.75h48.32ZM133.39,184.51c12.82,0,23.94-4.03,33.38-12.08,9.43-8.05,15.42-18.28,17.96-30.67h-102.67c2.54,12.4,8.53,22.62,17.96,30.67,9.43,8.05,20.55,12.08,33.38,12.08Z"/>
    </g>
  </g>
</svg>